Coordinates
version=1
nRows=5
nColumns=40
inDegrees=yes

Units are S.I. units (second, meters, Newtons, ...)
Angles are in degrees.

endheader
time	pelvis_tilt	pelvis_list	pelvis_rotation	pelvis_tx	pelvis_ty	pelvis_tz	hip_flexion_r	hip_adduction_r	hip_rotation_r	knee_angle_r	knee_angle_r_beta	ankle_angle_r	subtalar_angle_r	mtp_angle_r	hip_flexion_l	hip_adduction_l	hip_rotation_l	knee_angle_l	knee_angle_l_beta	ankle_angle_l	subtalar_angle_l	mtp_angle_l	lumbar_extension	lumbar_bending	lumbar_rotation	arm_flex_r	arm_add_r	arm_rot_r	elbow_flex_r	pro_sup_r	wrist_flex_r	wrist_dev_r	arm_flex_l	arm_add_l	arm_rot_l	elbow_flex_l	pro_sup_l	wrist_flex_l	wrist_dev_l
     44.65500000	     -5.87981345	     -3.68477861	     -4.78587249	      0.95354159	      0.92686070	      0.43660535	     28.02387815	     -1.46297916	    -13.81192693	     11.66496158	     11.66496158	      2.32172781	      8.77888451	      9.05434011	      4.12557441	     -3.21965302	    -10.72554699	     13.51090178	     13.51090178	     16.58647708	     -5.43728928	     -4.70123246	    -10.03562490	      4.23630365	      1.25343671	    -19.02365830	    -15.15401534	     -6.43203946	     26.73571611	     47.09598192	      0.00000000	      0.00000000	     21.72256575	    -19.61114726	    -11.47458641	     70.16049401	     47.18787974	      0.00000000	      0.00000000
     44.66807143	     -5.92774091	     -3.56063242	     -4.76482584	      0.95469218	      0.92552203	      0.43829869	     27.72729547	     -1.22638516	    -14.18006249	     11.12502896	     11.12502896	      2.06298235	      8.89443475	      9.30702916	      3.60577419	     -3.15077582	    -10.65929353	     13.47090697	     13.47090697	     16.97538993	     -5.43738919	     -4.82006053	     -9.74078181	      4.12994733	      1.19926754	    -19.63560378	    -15.01460109	     -6.50150462	     26.55545768	     47.09940175	      0.00000000	      0.00000000	     22.00388171	    -19.82436500	    -11.62022623	     70.41693418	     47.20768404	      0.00000000	      0.00000000
     44.68114286	     -5.81952941	     -3.63437365	     -4.78741831	      0.95616077	      0.92462129	      0.44015473	     27.00397642	     -0.80322493	    -14.71684263	     10.59781748	     10.59781748	      1.63963186	      9.40794470	      9.33140418	      2.79815758	     -3.29277521	    -10.71877567	     13.29329523	     13.29329523	     17.39152956	     -5.24587183	     -4.78701142	     -9.65405444	      4.24397704	      1.47043069	    -20.11614344	    -14.85174356	     -6.70758657	     26.55521893	     47.10087084	      0.00000000	      0.00000000	     22.14647774	    -19.52652217	    -11.72513730	     71.09314955	     47.23529996	      0.00000000	      0.00000000
     44.69421429	     -5.83099210	     -3.65325902	     -4.73580337	      0.95763756	      0.92347911	      0.44205321	     26.66743378	     -0.53927787	    -14.92401841	     10.90341338	     10.90341338	      1.43676508	      9.32629210	      9.15504520	      2.23667564	     -3.40693605	    -10.64073030	     13.30516278	     13.30516278	     17.77913476	     -5.18991074	     -4.83177691	     -9.36642921	      4.31319040	      1.45138945	    -20.38083431	    -14.69310647	     -6.76788178	     26.53254761	     47.10060903	      0.00000000	      0.00000000	     22.13627302	    -19.53100535	    -11.80097379	     71.28222167	     47.24629866	      0.00000000	      0.00000000
     44.70728571	     -5.71048135	     -3.63753336	     -4.72165568	      0.95942825	      0.92238555	      0.44418286	     26.09730786	     -0.26527656	    -14.76769818	     11.18591432	     11.18591432	     -0.10846459	      8.75998672	      4.47850003	      1.65037792	     -3.59869072	    -11.15161305	     13.70323588	     13.70323588	     19.07222134	     -4.01605383	     -3.42092493	     -9.28612906	      4.32890179	      1.36770099	    -20.61834646	    -14.47874299	     -7.98221293	     27.34558018	     47.09960394	      0.00000000	      0.00000000	     21.54425412	    -19.31630389	    -12.58869402	     72.88495471	     47.37060179	      0.00000000	      0.00000000
